<svg xmlns="http://www.w3.org/2000/svg" version="1.1" xmlns:xlink="http://www.w3.org/1999/xlink" xmlns:svgjs="http://svgjs.dev/svgjs" width="1500" height="564" viewBox="0 0 1500 564"><g transform="matrix(1,0,0,1,-2.2852426544137643,-1.1542551724136842)"><svg viewBox="0 0 154 58" data-background-color="#000000" preserveAspectRatio="xMidYMid meet" height="564" width="1500" xmlns="http://www.w3.org/2000/svg" xmlns:xlink="http://www.w3.org/1999/xlink"><g id="tight-bounds" transform="matrix(1,0,0,1,0.23461824585314162,0.11869999999998981)"><svg viewBox="0 0 153.53076350829372 57.7626" height="57.7626" width="153.53076350829372"><g><svg viewBox="0 0 153.53076350829372 57.7626" height="57.7626" width="153.53076350829372"><g><svg viewBox="0 0 153.53076350829372 57.7626" height="57.7626" width="153.53076350829372"><g id="textblocktransform"><svg viewBox="0 0 153.53076350829372 57.7626" height="57.7626" width="153.53076350829372" id="textblock"><g><svg viewBox="0 0 153.53076350829372 57.7626" height="57.7626" width="153.53076350829372"><g><svg><g></g><g></g></svg></g><g><svg><g><svg></svg></g><g></g></svg></g><g id="text-0"><svg viewBox="0 0 153.53076350829372 57.7626" height="57.7626" width="153.53076350829372"><g transform="matrix(1,0,0,1,0,0)"><svg width="80.73819999999999" viewBox="2.75 -35.1 49.9 35.7" height="57.7626" data-palette-color="url(#0319d7e7-724a-45b6-ace0-ab1ba37f7918)"><g class="wordmark-text-0" data-fill-palette-color="primary"></g></svg></g><g><svg xmlns="http://www.w3.org/2000/svg" xmlns:xlink="http://www.w3.org/1999/xlink" version="1.1" x="94.37559999999999" y="0" viewBox="11.017823632605118 11.459999999999999 37.963698158539415 37.07000000000001" style="enable-background:new 0 0 60 60;" xml:space="preserve" height="57.7626" width="59.155163508293725" class="icon-cg-0" data-fill-palette-color="accent" id="cg-0"></svg></g></svg></g></svg></g></svg></g></svg></g><g></g></svg></g><defs></defs><mask id="561223ca-0a68-476b-bc97-89729e01cb72"><g id="SvgjsG1424"><svg viewBox="0 0 153.53076350829372 57.7626" height="57.7626" width="153.53076350829372"><g><svg viewBox="0 0 153.53076350829372 57.7626" height="57.7626" width="153.53076350829372"><g><svg viewBox="0 0 153.53076350829372 57.7626" height="57.7626" width="153.53076350829372"><g id="SvgjsG1423"><svg viewBox="0 0 153.53076350829372 57.7626" height="57.7626" width="153.53076350829372" id="SvgjsSvg1422"><g><svg viewBox="0 0 153.53076350829372 57.7626" height="57.7626" width="153.53076350829372"><g><svg><g></g><g></g></svg></g><g><svg><g><svg></svg></g><g></g></svg></g><g id="SvgjsG1421"><svg viewBox="0 0 153.53076350829372 57.7626" height="57.7626" width="153.53076350829372"><g transform="matrix(1,0,0,1,0,0)"><svg width="80.73819999999999" viewBox="2.75 -35.1 49.9 35.7" height="57.7626" data-palette-color="url(#0319d7e7-724a-45b6-ace0-ab1ba37f7918)"><g class="wordmark-text-0" data-fill-palette-color="primary"><path d="M13.95-35.1L13.95-35.1Q16.4-35.05 19-34.85 21.6-34.65 24.2-34.1L24.2-34.1 23.9-30.9Q21.75-31 19.15-31.08 16.55-31.15 14.15-31.15L14.15-31.15Q12.3-31.15 10.98-31.03 9.65-30.9 8.8-30.43 7.95-29.95 7.58-28.88 7.2-27.8 7.2-25.9L7.2-25.9Q7.2-23.05 8.22-21.93 9.25-20.8 11.55-20.25L11.55-20.25 18.55-18.5Q22.55-17.55 24.03-15.18 25.5-12.8 25.5-8.8L25.5-8.8Q25.5-5.8 24.83-3.95 24.15-2.1 22.75-1.13 21.35-0.15 19.15 0.23 16.95 0.6 13.95 0.6L13.95 0.6Q12.25 0.6 9.53 0.45 6.8 0.3 3.25-0.35L3.25-0.35 3.55-3.6Q6.5-3.5 8.3-3.43 10.1-3.35 11.4-3.35 12.7-3.35 14.1-3.35L14.1-3.35Q16.75-3.35 18.28-3.75 19.8-4.15 20.43-5.35 21.05-6.55 21.05-8.9L21.05-8.9Q21.05-10.9 20.6-12 20.15-13.1 19.18-13.68 18.2-14.25 16.7-14.6L16.7-14.6 9.55-16.4Q5.8-17.35 4.28-19.7 2.75-22.05 2.75-26L2.75-26Q2.75-29 3.43-30.83 4.1-32.65 5.48-33.58 6.85-34.5 8.95-34.8 11.05-35.1 13.95-35.1ZM32.3-34.5L36.65-34.5 36.65-7Q36.65-5.3 37.47-4.5 38.3-3.7 40-3.7L40-3.7 52.45-3.7 52.65-0.3Q49.4-0.05 46.02 0 42.65 0.05 39.3 0.05L39.3 0.05Q35.5 0.05 33.9-1.8 32.3-3.65 32.3-6.45L32.3-6.45 32.3-34.5Z" fill="white"></path></g></svg></g><g><svg xmlns="http://www.w3.org/2000/svg" xmlns:xlink="http://www.w3.org/1999/xlink" version="1.1" x="94.37559999999999" y="0" viewBox="11.017823632605118 11.459999999999999 37.963698158539415 37.07000000000001" style="enable-background:new 0 0 60 60;" xml:space="preserve" height="57.7626" width="59.155163508293725" class="icon-cg-0" data-fill-palette-color="accent" id="SvgjsSvg1420"><path d="M48.85 34.1L35.82 11.92c-0.17-0.29-0.47-0.46-0.81-0.46s-0.64 0.18-0.81 0.46L30 19.08l-4.21-7.15c-0.17-0.29-0.47-0.46-0.81-0.46s-0.64 0.18-0.81 0.46L11.15 34.1c-0.22 0.37-0.16 0.83 0.14 1.13l13.03 13.03c0.18 0.18 0.42 0.27 0.66 0.27s0.48-0.09 0.66-0.27L30 43.91l4.35 4.35c0.18 0.18 0.42 0.27 0.66 0.27s0.48-0.09 0.66-0.27l13.03-13.03C49.01 34.93 49.07 34.46 48.85 34.1zM24.99 46.28L13.13 34.42l11.86-20.18 3.93 6.68L21.17 34.1c-0.22 0.37-0.16 0.83 0.14 1.13l7.36 7.36L24.99 46.28zM30 22.77l6.85 11.65L30 41.27l-6.85-6.85L30 22.77zM35.01 46.28l-3.69-3.69 7.36-7.36c0.3-0.3 0.36-0.77 0.14-1.13l-7.74-13.17 3.93-6.68 11.86 20.18L35.01 46.28z" fill="black"></path></svg></g></svg></g></svg></g></svg></g></svg></g><g></g></svg></g><defs><mask></mask></defs></svg><rect width="153.53076350829372" height="57.7626" fill="black" stroke="none" visibility="hidden"></rect></g></mask><linearGradient x1="0" x2="1" y1="0.578" y2="0.595" id="0319d7e7-724a-45b6-ace0-ab1ba37f7918"><stop stop-color="#6ee2f5" offset="0"></stop><stop stop-color="#6454f0" offset="1"></stop></linearGradient><rect width="153.53076350829372" height="57.7626" fill="url(#0319d7e7-724a-45b6-ace0-ab1ba37f7918)" mask="url(#561223ca-0a68-476b-bc97-89729e01cb72)" data-fill-palette-color="primary"></rect><mask id="b37ae783-d3f9-4644-85ff-190f3c04e242"><g id="SvgjsG1445"><svg viewBox="0 0 153.53076350829372 57.7626" height="57.7626" width="153.53076350829372"><g><svg viewBox="0 0 153.53076350829372 57.7626" height="57.7626" width="153.53076350829372"><g><svg viewBox="0 0 153.53076350829372 57.7626" height="57.7626" width="153.53076350829372"><g id="SvgjsG1444"><svg viewBox="0 0 153.53076350829372 57.7626" height="57.7626" width="153.53076350829372" id="SvgjsSvg1443"><g><svg viewBox="0 0 153.53076350829372 57.7626" height="57.7626" width="153.53076350829372"><g><svg><g></g><g></g></svg></g><g><svg><g><svg></svg></g><g></g></svg></g><g id="SvgjsG1442"><svg viewBox="0 0 153.53076350829372 57.7626" height="57.7626" width="153.53076350829372"><g transform="matrix(1,0,0,1,0,0)"><svg width="80.73819999999999" viewBox="2.75 -35.1 49.9 35.7" height="57.7626" data-palette-color="url(#0319d7e7-724a-45b6-ace0-ab1ba37f7918)"><g class="wordmark-text-0" data-fill-palette-color="primary"></g></svg></g><g><svg xmlns="http://www.w3.org/2000/svg" xmlns:xlink="http://www.w3.org/1999/xlink" version="1.1" x="94.37559999999999" y="0" viewBox="11.017823632605118 11.459999999999999 37.963698158539415 37.07000000000001" style="enable-background:new 0 0 60 60;" xml:space="preserve" height="57.7626" width="59.155163508293725" class="icon-cg-0" data-fill-palette-color="accent" id="SvgjsSvg1441"><path d="M48.85 34.1L35.82 11.92c-0.17-0.29-0.47-0.46-0.81-0.46s-0.64 0.18-0.81 0.46L30 19.08l-4.21-7.15c-0.17-0.29-0.47-0.46-0.81-0.46s-0.64 0.18-0.81 0.46L11.15 34.1c-0.22 0.37-0.16 0.83 0.14 1.13l13.03 13.03c0.18 0.18 0.42 0.27 0.66 0.27s0.48-0.09 0.66-0.27L30 43.91l4.35 4.35c0.18 0.18 0.42 0.27 0.66 0.27s0.48-0.09 0.66-0.27l13.03-13.03C49.01 34.93 49.07 34.46 48.85 34.1zM24.99 46.28L13.13 34.42l11.86-20.18 3.93 6.68L21.17 34.1c-0.22 0.37-0.16 0.83 0.14 1.13l7.36 7.36L24.99 46.28zM30 22.77l6.85 11.65L30 41.27l-6.85-6.85L30 22.77zM35.01 46.28l-3.69-3.69 7.36-7.36c0.3-0.3 0.36-0.77 0.14-1.13l-7.74-13.17 3.93-6.68 11.86 20.18L35.01 46.28z" fill="white"></path></svg></g></svg></g></svg></g></svg></g></svg></g><g></g></svg></g><defs><mask></mask></defs><mask><g id="SvgjsG1440"><svg viewBox="0 0 153.53076350829372 57.7626" height="57.7626" width="153.53076350829372"><g><svg viewBox="0 0 153.53076350829372 57.7626" height="57.7626" width="153.53076350829372"><g><svg viewBox="0 0 153.53076350829372 57.7626" height="57.7626" width="153.53076350829372"><g id="SvgjsG1439"><svg viewBox="0 0 153.53076350829372 57.7626" height="57.7626" width="153.53076350829372" id="SvgjsSvg1438"><g><svg viewBox="0 0 153.53076350829372 57.7626" height="57.7626" width="153.53076350829372"><g><svg><g></g><g></g></svg></g><g><svg><g><svg></svg></g><g></g></svg></g><g id="SvgjsG1437"><svg viewBox="0 0 153.53076350829372 57.7626" height="57.7626" width="153.53076350829372"><g transform="matrix(1,0,0,1,0,0)"><svg width="80.73819999999999" viewBox="2.75 -35.1 49.9 35.7" height="57.7626" data-palette-color="url(#0319d7e7-724a-45b6-ace0-ab1ba37f7918)"><g class="wordmark-text-0" data-fill-palette-color="primary"><path d="M13.95-35.1L13.95-35.1Q16.4-35.05 19-34.85 21.6-34.65 24.2-34.1L24.2-34.1 23.9-30.9Q21.75-31 19.15-31.08 16.55-31.15 14.15-31.15L14.15-31.15Q12.3-31.15 10.98-31.03 9.65-30.9 8.8-30.43 7.95-29.95 7.58-28.88 7.2-27.8 7.2-25.9L7.2-25.9Q7.2-23.05 8.22-21.93 9.25-20.8 11.55-20.25L11.55-20.25 18.55-18.5Q22.55-17.55 24.03-15.18 25.5-12.8 25.5-8.8L25.5-8.8Q25.5-5.8 24.83-3.95 24.15-2.1 22.75-1.13 21.35-0.15 19.15 0.23 16.95 0.6 13.95 0.6L13.95 0.6Q12.25 0.6 9.53 0.45 6.8 0.3 3.25-0.35L3.25-0.35 3.55-3.6Q6.5-3.5 8.3-3.43 10.1-3.35 11.4-3.35 12.7-3.35 14.1-3.35L14.1-3.35Q16.75-3.35 18.28-3.75 19.8-4.15 20.43-5.35 21.05-6.55 21.05-8.9L21.05-8.9Q21.05-10.9 20.6-12 20.15-13.1 19.18-13.68 18.2-14.25 16.7-14.6L16.7-14.6 9.55-16.4Q5.8-17.35 4.28-19.7 2.75-22.05 2.75-26L2.75-26Q2.75-29 3.43-30.83 4.1-32.65 5.48-33.58 6.85-34.5 8.95-34.8 11.05-35.1 13.95-35.1ZM32.3-34.5L36.65-34.5 36.65-7Q36.65-5.3 37.47-4.5 38.3-3.7 40-3.7L40-3.7 52.45-3.7 52.65-0.3Q49.4-0.05 46.02 0 42.65 0.05 39.3 0.05L39.3 0.05Q35.5 0.05 33.9-1.8 32.3-3.65 32.3-6.45L32.3-6.45 32.3-34.5Z" fill="black"></path></g></svg></g><g><svg xmlns="http://www.w3.org/2000/svg" xmlns:xlink="http://www.w3.org/1999/xlink" version="1.1" x="94.37559999999999" y="0" viewBox="11.017823632605118 11.459999999999999 37.963698158539415 37.07000000000001" style="enable-background:new 0 0 60 60;" xml:space="preserve" height="57.7626" width="59.155163508293725" class="icon-cg-0" data-fill-palette-color="accent" id="SvgjsSvg1436"><path d="M48.85 34.1L35.82 11.92c-0.17-0.29-0.47-0.46-0.81-0.46s-0.64 0.18-0.81 0.46L30 19.08l-4.21-7.15c-0.17-0.29-0.47-0.46-0.81-0.46s-0.64 0.18-0.81 0.46L11.15 34.1c-0.22 0.37-0.16 0.83 0.14 1.13l13.03 13.03c0.18 0.18 0.42 0.27 0.66 0.27s0.48-0.09 0.66-0.27L30 43.91l4.35 4.35c0.18 0.18 0.42 0.27 0.66 0.27s0.48-0.09 0.66-0.27l13.03-13.03C49.01 34.93 49.07 34.46 48.85 34.1zM24.99 46.28L13.13 34.42l11.86-20.18 3.93 6.68L21.17 34.1c-0.22 0.37-0.16 0.83 0.14 1.13l7.36 7.36L24.99 46.28zM30 22.77l6.85 11.65L30 41.27l-6.85-6.85L30 22.77zM35.01 46.28l-3.69-3.69 7.36-7.36c0.3-0.3 0.36-0.77 0.14-1.13l-7.74-13.17 3.93-6.68 11.86 20.18L35.01 46.28z" fill="black"></path></svg></g></svg></g></svg></g></svg></g></svg></g><g></g></svg></g><defs><mask></mask></defs></svg><rect width="153.53076350829372" height="57.7626" fill="black" stroke="none" visibility="hidden"></rect></g></mask></svg><rect width="153.53076350829372" height="57.7626" fill="black" stroke="none" visibility="hidden"></rect></g></mask><linearGradient x1="0" x2="1" y1="0.578" y2="0.595" id="41239fe4-14ec-4c19-ac1d-421f6b6cbd6a"><stop stop-color="#6ee2f5" offset="0"></stop><stop stop-color="#6454f0" offset="1"></stop></linearGradient><rect width="153.53076350829372" height="57.7626" fill="url(#41239fe4-14ec-4c19-ac1d-421f6b6cbd6a)" mask="url(#b37ae783-d3f9-4644-85ff-190f3c04e242)" data-fill-palette-color="accent"></rect></svg><rect width="153.53076350829372" height="57.7626" fill="none" stroke="none" visibility="hidden"></rect></g></svg></g></svg>